# xmcd CD database file
#
# Track frame offsets:
#	150
#	12938
#	27080
#	39188
#	48040
#	60299
#	75076
#	84292
#	95046
#	107432
#
# Disc length: 1596 seconds
#
# Revision: 0
# Processed by: cddbd v1.5.2PL0 Copyright (c) Steve Scherf et al.
# Submitted via: CDex 1.70beta2
#
DISCID=57063a0a
DTITLE=WSOC - The Wild Side of Country - Honky Tonk Country
DYEAR=1900
DGENRE=Country
TTITLE0=folsom prison blues - Johnny Cash
TTITLE1=I'm a lonesome fugitive - Merle Haggard
TTITLE2=take this job and shove it - Johnny Paycheck
TTITLE3=fuzzy was an outlaw - David Allan Coe
TTITLE4=lost highway - Hank Williams
TTITLE5=me and bobby mcgee - Roger Miller
TTITLE6=honky tonkin' - George Jones
TTITLE7=honky tonk merry go round - Patsy Cline
TTITLE8=wasted days and wasted nights - Freddy Fender
TTITLE9=rednecks white socks and blue ribbon beer - Johnny Russell
EXTD=
EXTT0=
EXTT1=
EXTT2=
EXTT3=
EXTT4=
EXTT5=
EXTT6=
EXTT7=
EXTT8=
EXTT9=
PLAYORDER=
